<svg xmlns="http://www.w3.org/2000/svg" width="135.6" height="69.6">
  <g stroke="#fff" stroke-linecap="round" stroke-width=".4mm" font-size="12" style="stroke:#fff;stroke-width:.4mm;fill:#000">
    <path d="m7.4 12.4-.1-.5q0-1.2 1.28-2.14a6.44 6.44 0 0 1 .72-.46L21 4.7q.38-.2 1.09-.2a5.45 5.45 0 0 1 .06 0 1.58 1.58 0 0 1 .96.33 2.42 2.42 0 0 1 .39.37q.44.51.93.65a1.36 1.36 0 0 0 .37.05q.7 0 2.95-.55t6.05-1.4q3.8-.85 8.5-1.65A133.13 133.13 0 0 1 62.98.42 147.5 147.5 0 0 1 65.2.4q14.1 0 20.2 2.1 2.4.9 4.05 2.45a5.24 5.24 0 0 1 1.25 1.74 5.01 5.01 0 0 1 .4 2.01 1.31 1.31 0 0 1-.13.61q-.29.55-1.18.66a3.98 3.98 0 0 1-.49.03 502.03 502.03 0 0 0-16.11.7q-14.35.86-24.79 2.5-1.07.13-1.42.58a.81.81 0 0 0-.18.52 3.13 3.13 0 0 0 .02.32 2.45 2.45 0 0 0 .03.23.16.16 0 0 1 0 .03q0 .27-.75 1.12L34.8 28.1q-.63.63-.7.98a.4.4 0 0 0 0 .07.73.73 0 0 0 .01.12q.04.22.23.23a.35.35 0 0 0 .01 0q.23 0 1.13-.18a39.41 39.41 0 0 0 .12-.02q6.5-.4 12-.4 5.25 0 6.22.55a.76.76 0 0 1 .08.05 137.36 137.36 0 0 1 1.52 1.16q2.97 2.29 3.6 3.11a2.17 2.17 0 0 1 .03.03q.59.78.72 1.32a1.22 1.22 0 0 1 .03.28q0 1.3-2.2 1.6a4620.64 4620.64 0 0 1-6.11.6q-20.55 2-22.39 1.95-2.1-.05-2.7-.05a2.59 2.59 0 0 0-1.15.3q-1.14.56-2.45 2.2L10.6 58.2a7.59 7.59 0 0 0-.2.33q-.27.48-.3.75a.58.58 0 0 0 0 .07.44.44 0 0 0 .02.15q.07.19.35.2a.86.86 0 0 0 .03 0q.4 0 1.2-.4a123.78 123.78 0 0 1 10.18-1.21 98 98 0 0 1 7.37-.29 217.9 217.9 0 0 1 3.82.03q3.97.07 6.65.3a42.3 42.3 0 0 1 1.68.17 9.08 9.08 0 0 1 4.2 1.12q3 1.55 6.2 5.28a43.3 43.3 0 0 1 1.4 1.7q.5.7.5 1.3a.43.43 0 0 1-.24.38q-.32.2-1.1.22a6.88 6.88 0 0 1-.16 0q-19.06 0-31.15.59a240.38 240.38 0 0 0-6.75.41 4.33 4.33 0 0 1-.38.06q-.4.04-.92.04-3.9 0-5.57-1.64a3.96 3.96 0 0 1-.33-.36 1.12 1.12 0 0 0-.28-.37q-.22-.18-.54-.22a1.46 1.46 0 0 0-.18-.01q-.7 0-1.25.7-.47.6-.75.68a.32.32 0 0 1-.1.02.58.58 0 0 1-.17-.03q-.26-.08-.73-.38a11.4 11.4 0 0 1-.3-.19q-.9-.6-1.83-2.02a14.1 14.1 0 0 1-.02-.03Q0 64.1 0 62.45q0-1.65.65-3.05l1.48-3.14a682.99 682.99 0 0 1 .22-.46q.97-2.04 4.18-6.78a210 210 0 0 1 .52-.77 62.78 62.78 0 0 1 4.19-5.5 49.33 49.33 0 0 1 3.46-3.65 2.48 2.48 0 0 0 .24-.28q.26-.35.26-.67 0-.45-1.05-.45a3.18 3.18 0 0 1-1.28-.28 4.52 4.52 0 0 1-.82-.47 2.38 2.38 0 0 1-1.03-1.73 3.17 3.17 0 0 1-.02-.37 1.21 1.21 0 0 1 .4-.85q.7-.72 2.67-1.28a18.3 18.3 0 0 1 .43-.12l5.4-1.4h.1a2.78 2.78 0 0 0 1.38-.39q.87-.49 1.73-1.6a10.68 10.68 0 0 0 .09-.11 465.17 465.17 0 0 1 4.03-3.89q7.61-7.23 9.92-8.57a4.54 4.54 0 0 1 .25-.14q.75-.5.87-.82a.35.35 0 0 0 .03-.13.29.29 0 0 0-.18-.28q-.15-.07-.42-.07a5.96 5.96 0 0 0-.41.01q-.34.03-.59.09a164.88 164.88 0 0 1-5.44.8q-4.99.63-8.54.7a43.44 43.44 0 0 1-.82 0q-4.15 0-6.59-.28a17.72 17.72 0 0 1-1.41-.22 23.32 23.32 0 0 1-1.3-.3q-1.54-.4-2.4-.9a20.56 20.56 0 0 1-.99-.69q-1.38-1.02-1.72-1.74a1.2 1.2 0 0 1-.09-.27Z"/>
    <path d="m96.3 38.6-10.2.4a213.68 213.68 0 0 1-4.07-.04q-5.02-.1-7.6-.45a16.72 16.72 0 0 1-.98-.16q-3.25-.65-5.8-1.55a19.16 19.16 0 0 1-1.77-.72q-.84-.4-1.52-.83a9.33 9.33 0 0 1-.76-.55 9.24 9.24 0 0 1-2.75-3.22q-.89-1.78-.95-3.98a11.71 11.71 0 0 1 0-.3 3.5 3.5 0 0 1 .13-.87q.34-1.3 1.57-3.33 1.54-2.53 5.07-5.91a66.99 66.99 0 0 1 .78-.74q4.15-3.85 9.9-7.3 4.29-2.57 10.61-4.68A93.13 93.13 0 0 1 92.5 3q9.4-2.6 20.4-3a35.93 35.93 0 0 1 5.05.37 43.98 43.98 0 0 1 3.2.58 50 50 0 0 1 3.05.76q2.37.68 4.15 1.49a13.8 13.8 0 0 1 4.2 3 16.58 16.58 0 0 1 .85.95q2.2 2.65 2.2 6.15a3.65 3.65 0 0 1-.6 1.91q-.82 1.33-2.74 2.74a25.32 25.32 0 0 1-2.06 1.35 23 23 0 0 1-6.1 2.5q-4.29 1.1-9.75 1.1a108.42 108.42 0 0 1-2.84-.03q-5.51-.15-6.7-.91a.57.57 0 0 1-.31-.46.75.75 0 0 1 .3-.53q1.03-.92 5.45-2.07 5.75-1.5 11.55-3.5a24.72 24.72 0 0 0 1.97-.77q3.83-1.7 3.83-3.73a.82.82 0 0 0-.45-.7q-.73-.46-2.68-.57a23.3 23.3 0 0 0-1.27-.03A93.74 93.74 0 0 0 97.42 13 76.63 76.63 0 0 0 73.4 24.6a21.77 21.77 0 0 0-1.52 1.23q-1.45 1.3-2.01 2.4a3 3 0 0 0-.37 1.37 1.66 1.66 0 0 0 1.1 1.35q3.7 1.95 19.7 1.95a53.45 53.45 0 0 1 6.33.4q6.47.86 9.56 3.44A7.65 7.65 0 0 1 109 42.9a11.32 11.32 0 0 1-1.95 6.2q-2.28 3.54-7.24 6.9a43.82 43.82 0 0 1-.31.2 69.99 69.99 0 0 1-13 6.71A89.18 89.18 0 0 1 77.15 66a107.28 107.28 0 0 1-13.22 2.76A83.72 83.72 0 0 1 53 69.6a22.8 22.8 0 0 1-6.1-.87 31.64 31.64 0 0 1-5.1-1.93 18.13 18.13 0 0 1-2.44-1.38Q35.9 63.06 35.9 60a1.14 1.14 0 0 1 .68-1.07q.49-.26 1.33-.32a7 7 0 0 1 .19-.01 195.5 195.5 0 0 0 4.76-.58q6.45-.87 9.32-1.83a10.52 10.52 0 0 0 1.02-.39q.8-.2 1.3-.2.4 0 .48.12a.13.13 0 0 1 .02.08.47.47 0 0 1-.07.22q-.16.3-.74.78a11.14 11.14 0 0 1-.39.3 19.04 19.04 0 0 1-1.6.78 22.34 22.34 0 0 1-.8.32 51.87 51.87 0 0 0-.66.24q-2.12.79-2.14 1.05a.07.07 0 0 0 0 .01.15.15 0 0 0 .1.12q.35.18 1.9.18a10.56 10.56 0 0 0 .96-.06q2.36-.22 8.12-1.34a326.46 326.46 0 0 0 1.02-.2q8.1-1.6 17.35-4.1 9.25-2.5 16.35-6.2 6.78-3.53 7.09-6.8a3.29 3.29 0 0 0 .01-.3q0-2.15-4.95-2.2a23.69 23.69 0 0 0-.25 0Z"/>
  </g>
</svg>
